<?xml version="1.0" encoding="UTF-8"?>
<svg width="512" height="512" viewBox="0 0 24 24" fill="none" xmlns="http://www.w3.org/2000/svg">
  <rect width="24" height="24" rx="12" fill="#4F46E5" fillOpacity="0.1"/>
  <!-- Shopping Bag -->
  <path d="M8 7V5C8 3.34315 9.34315 2 11 2H13C14.6569 2 16 3.34315 16 5V7" stroke="#4F46E5" strokeWidth="1.5"/>
  <path fillRule="evenodd" clipRule="evenodd" d="M7.25 6C6.00736 6 5 7.00736 5 8.25V17.75C5 18.9926 6.00736 20 7.25 20H16.75C17.9926 20 19 18.9926 19 17.75V8.25C19 7.00736 17.9926 6 16.75 6H7.25ZM12 10C11.4477 10 11 10.4477 11 11V13C11 13.5523 11.4477 14 12 14C12.5523 14 13 13.5523 13 13V11C13 10.4477 12.5523 10 12 10Z" fill="#4F46E5"/>
</svg>
